<svg width="30" height="42" viewBox="0 0 30 42" fill="none" xmlns="http://www.w3.org/2000/svg">
<path d="M27.8571 0C27.2888 0 26.7438 0.228878 26.3419 0.636285C25.9401 1.04369 25.7143 1.59625 25.7143 2.17241V26.7931C25.7143 27.5613 25.4133 28.298 24.8775 28.8412C24.3416 29.3844 23.6149 29.6896 22.8572 29.6896H7.31622L11.5153 25.4327C11.9172 25.0253 12.143 24.4727 12.143 23.8965C12.143 23.3203 11.9172 22.7678 11.5153 22.3604C11.1134 21.9529 10.5684 21.7241 10.0001 21.7241C9.43172 21.7241 8.88666 21.9529 8.48479 22.3604L0.627666 30.3259C0.428672 30.5276 0.270821 30.7671 0.163126 31.0307C0.0554303 31.2942 0 31.5767 0 31.862C0 32.1473 0.0554303 32.4298 0.163126 32.6934C0.270821 32.957 0.428672 33.1965 0.627666 33.3982L8.48479 41.3637C8.88666 41.7711 9.43172 42 10.0001 42C10.5684 42 11.1134 41.7711 11.5153 41.3637C11.9172 40.9563 12.143 40.4037 12.143 39.8275C12.143 39.2514 11.9172 38.6988 11.5153 38.2914L7.31622 34.0344H22.8572C23.7952 34.0344 24.724 33.8471 25.5906 33.4832C26.4572 33.1193 27.2446 32.5859 27.9079 31.9135C28.5712 31.2411 29.0973 30.4428 29.4563 29.5642C29.8152 28.6857 30 27.744 30 26.7931V2.17241C30 1.59625 29.7742 1.04369 29.3724 0.636285C28.9705 0.228878 28.4255 0 27.8571 0V0Z" fill="#636772"/>
</svg>
